<?xml version="1.0" encoding="UTF-8" standalone="no"?>
<svg
   xmlns:dc="http://purl.org/dc/elements/1.1/"
   xmlns:cc="http://creativecommons.org/ns#"
   xmlns:rdf="http://www.w3.org/1999/02/22-rdf-syntax-ns#"
   xmlns:svg="http://www.w3.org/2000/svg"
   xmlns="http://www.w3.org/2000/svg"
   xmlns:sodipodi="http://sodipodi.sourceforge.net/DTD/sodipodi-0.dtd"
   xmlns:inkscape="http://www.inkscape.org/namespaces/inkscape"
   version="1.0"
   width="413.34152pt"
   height="250.62932pt"
   viewBox="0 0 413.34152 250.62932"
   preserveAspectRatio="xMidYMid meet"
   id="svg32"
   sodipodi:docname="Chicago_logo.svg"
   inkscape:version="1.0 (4035a4fb49, 2020-05-01)">
  <metadata
     id="metadata38">
    <rdf:RDF>
      <cc:Work
         rdf:about="">
        <dc:format>image/svg+xml</dc:format>
        <dc:type
           rdf:resource="http://purl.org/dc/dcmitype/StillImage" />
        <dc:title />
      </cc:Work>
    </rdf:RDF>
  </metadata>
  <defs
     id="defs36" />
  <sodipodi:namedview
     inkscape:document-rotation="0"
     pagecolor="#ffffff"
     bordercolor="#666666"
     borderopacity="1"
     objecttolerance="10"
     gridtolerance="10"
     guidetolerance="10"
     inkscape:pageopacity="0"
     inkscape:pageshadow="2"
     inkscape:window-width="1366"
     inkscape:window-height="705"
     id="namedview34"
     showgrid="false"
     fit-margin-top="0"
     fit-margin-left="0"
     fit-margin-right="0"
     fit-margin-bottom="0"
     inkscape:zoom="1.5411206"
     inkscape:cx="395.29374"
     inkscape:cy="167.08622"
     inkscape:window-x="-8"
     inkscape:window-y="-8"
     inkscape:window-maximized="1"
     inkscape:current-layer="g30" />
  <g
     transform="matrix(0.02451312,0,0,-0.02451312,-0.04947376,250.66396)"
     fill="#000000"
     stroke="none"
     id="g30"
     style="stroke-width:4.07945">
    <path
       d="M 5165,10220 C 4522,10175 3929,10042 3350,9814 2692,9553 2100,9148 1605,8620 707,7663 127,6337 20,5000 2,4774 -4,4322 9,4100 74,2949 395,2027 988,1284 1097,1147 1352,890 1491,777 1855,481 2288,244 2664,134 3569,-129 4762,5 5790,485 c 548,256 1007,386 1315,372 233,-10 340,-83 338,-232 -1,-79 -16,-110 -134,-286 l -99,-149 h 31 c 71,0 360,33 451,51 310,62 590,224 734,425 25,34 60,95 78,135 l 34,74 20,-45 c 32,-74 109,-198 177,-286 155,-197 385,-354 654,-444 422,-142 1011,-129 1501,32 206,67 380,176 546,342 216,217 363,490 444,826 13,52 24,96 25,98 2,2 65,-15 141,-37 467,-134 914,-219 1349,-257 239,-20 736,-15 915,10 369,53 618,129 939,291 831,416 1354,1053 1551,1890 56,238 65,314 64,540 0,172 -4,233 -23,339 -94,533 -371,1005 -725,1234 -143,93 -355,177 -546,219 -120,26 -429,26 -550,0 -255,-55 -514,-182 -713,-351 l -67,-56 -79,40 c -113,56 -206,80 -318,80 -105,0 -161,-15 -238,-65 -49,-31 -54,-32 -190,-38 -168,-7 -219,-21 -311,-85 -216,-152 -446,-500 -618,-935 -127,-319 -196,-615 -196,-836 0,-472 223,-768 644,-857 122,-26 309,-36 416,-23 457,54 827,414 1050,1020 103,280 157,579 176,967 l 6,144 61,29 c 101,48 230,72 351,67 88,-4 112,-9 169,-35 155,-73 226,-194 273,-463 24,-143 15,-404 -20,-567 -78,-358 -272,-769 -493,-1043 -83,-103 -280,-291 -388,-372 -242,-180 -499,-287 -805,-335 -164,-26 -646,-25 -845,1 -284,36 -564,94 -817,167 -87,25 -108,35 -108,50 0,58 67,478 131,819 197,1050 401,1701 682,2175 l 66,110 -432,3 c -459,2 -445,4 -460,-41 -2,-6 -30,5 -63,25 -107,65 -194,90 -326,96 -149,6 -236,-13 -366,-78 -186,-94 -302,-207 -468,-457 -217,-326 -384,-755 -459,-1174 -16,-90 -21,-102 -69,-165 -53,-69 -126,-134 -151,-134 -17,0 -52,-113 309,996 168,518 306,944 306,948 0,7 -300,6 -635,-3 -183,-5 -257,-4 -275,5 -182,85 -415,74 -645,-31 -142,-64 -302,-192 -410,-328 -33,-42 -63,-76 -67,-76 -5,-1 -8,19 -8,42 0,64 -35,189 -72,260 -44,85 -155,193 -240,235 -79,39 -203,72 -268,72 -26,0 -50,3 -53,6 -4,4 19,23 51,42 424,263 739,689 881,1197 200,717 55,1516 -400,2195 -139,208 -271,358 -442,506 -542,466 -1211,738 -2042,830 -167,18 -683,26 -870,14 z m 905,-154 c 200,-26 354,-54 525,-96 798,-196 1437,-613 1817,-1186 289,-434 440,-898 455,-1389 18,-622 -191,-1166 -598,-1560 -232,-224 -496,-372 -811,-454 -184,-48 -249,-56 -453,-56 -209,1 -295,13 -439,66 -336,122 -531,431 -488,772 24,190 95,340 222,468 135,136 261,190 440,190 160,0 270,-41 359,-136 142,-150 166,-386 58,-588 -36,-69 -131,-160 -184,-177 -56,-18 -58,-25 -16,-46 47,-23 153,-30 225,-15 120,25 283,126 397,246 266,280 390,682 361,1176 -14,258 -63,445 -175,674 -167,342 -416,622 -754,846 -398,265 -787,372 -1351,373 -249,0 -370,-9 -585,-45 C 4183,8979 3396,8488 2829,7728 2401,7154 2092,6466 1876,5602 1729,5016 1705,4261 1815,3715 c 145,-721 521,-1247 1088,-1525 285,-140 615,-206 1072,-217 421,-10 703,20 1435,153 651,117 911,154 1250,175 295,18 623,0 830,-47 539,-122 892,-492 951,-996 45,-391 -182,-698 -625,-843 -103,-34 -310,-74 -321,-63 -4,3 5,24 19,46 93,147 87,340 -14,454 -87,99 -219,142 -440,141 C 6726,993 6293,868 5747,616 5415,462 5149,367 4818,285 4397,181 4071,140 3662,140 c -620,0 -1078,113 -1550,382 -335,191 -508,323 -772,588 -107,107 -235,247 -284,310 -535,691 -834,1550 -907,2604 -15,225 -6,866 15,1076 118,1140 548,2218 1219,3058 470,588 1019,1039 1664,1368 487,248 1314,476 1948,538 88,9 178,18 200,20 106,10 756,-3 875,-18 z M 5704,9005 C 5241,8863 4848,8540 4546,8054 l -56,-91 -178,-6 c -446,-16 -718,-108 -905,-306 -119,-127 -181,-301 -158,-445 20,-126 93,-237 200,-305 40,-26 265,-111 293,-111 4,0 5,55 1,123 l -6,123 38,31 c 20,17 67,41 103,52 71,24 254,44 303,34 26,-5 30,-9 25,-28 -3,-13 -330,-1030 -727,-2260 -396,-1230 -719,-2238 -717,-2240 1,-1 219,-4 482,-6 l 479,-4 483,1530 c 303,961 496,1557 519,1604 50,101 122,176 192,198 47,15 56,15 64,3 13,-22 11,-116 -5,-191 -8,-36 -190,-599 -405,-1251 -215,-652 -398,-1216 -406,-1254 -20,-92 -19,-293 0,-369 53,-208 206,-362 406,-410 230,-54 535,31 838,233 51,34 96,62 101,62 4,0 25,-22 45,-50 117,-160 326,-270 511,-270 169,0 393,80 605,215 l 70,45 62,-50 c 136,-110 271,-160 457,-167 189,-8 335,22 550,113 93,39 272,132 342,178 24,16 25,15 71,-44 79,-102 223,-202 350,-242 88,-29 243,-28 360,0 134,33 262,89 399,175 l 48,29 56,-51 c 31,-28 86,-69 122,-90 61,-36 93,-48 177,-67 24,-5 9,-10 -75,-25 -179,-31 -356,-88 -505,-162 -277,-138 -516,-381 -617,-628 l -32,-79 -46,89 c -172,325 -422,534 -780,651 -249,82 -456,105 -873,97 -404,-7 -625,-34 -1312,-158 -658,-119 -895,-151 -1229,-170 -367,-21 -809,25 -1077,112 -135,43 -378,167 -482,244 -430,321 -695,811 -791,1465 -67,463 -35,1118 79,1588 219,902 558,1641 1018,2221 117,148 431,465 567,572 386,307 791,508 1265,629 272,70 489,97 780,98 l 190,1 z m 691,-97 c 181,-35 332,-108 444,-213 117,-111 165,-238 165,-435 -1,-227 -85,-419 -260,-595 -213,-212 -525,-345 -939,-400 -168,-22 -444,-29 -614,-16 -80,6 -147,9 -149,6 -5,-5 -222,-706 -222,-717 0,-4 22,6 49,22 84,52 292,147 391,178 139,44 207,55 317,50 115,-5 197,-36 256,-96 102,-105 121,-314 56,-595 -12,-51 -206,-633 -431,-1294 -225,-662 -416,-1235 -424,-1275 -27,-128 -5,-231 56,-263 37,-19 77,-19 137,1 139,47 265,175 388,393 48,85 78,172 273,776 l 220,680 h 275 c 152,-1 279,-3 282,-6 3,-3 -112,-394 -255,-868 -143,-475 -260,-879 -260,-899 0,-51 31,-97 82,-124 34,-18 60,-22 128,-23 102,0 164,19 235,73 l 50,38 12,163 c 18,268 52,455 120,665 110,341 264,607 478,822 222,224 424,327 670,340 359,21 583,-198 561,-547 -7,-115 -45,-271 -82,-339 -36,-66 -110,-135 -182,-168 -51,-24 -68,-27 -172,-27 -156,0 -157,1 -124,67 71,141 102,302 70,369 -33,71 -131,98 -210,58 -101,-50 -228,-217 -336,-441 -179,-370 -239,-780 -144,-988 47,-103 103,-140 213,-140 167,0 386,115 622,328 140,125 152,143 172,248 40,213 117,450 213,653 171,360 394,617 635,730 257,121 483,103 646,-52 29,-27 55,-48 57,-46 2,2 11,27 20,55 l 17,51 76,7 c 101,8 493,8 493,-1 0,-4 -129,-403 -286,-887 -301,-925 -308,-952 -272,-1009 33,-49 143,-61 217,-23 50,26 145,122 200,200 45,66 53,85 66,163 72,419 233,832 454,1165 156,235 305,366 489,432 73,25 102,30 182,31 156,0 282,-52 420,-173 59,-52 60,-53 69,-30 5,13 18,44 30,70 l 20,48 h 268 268 l -62,-127 c -104,-209 -219,-522 -313,-843 -147,-508 -339,-1477 -405,-2052 -8,-69 -26,-57 203,-124 455,-134 876,-197 1302,-198 443,0 684,46 975,189 375,183 688,473 911,842 176,292 305,624 360,928 25,140 26,445 1,569 -25,120 -63,239 -100,310 -61,114 -182,211 -316,250 -178,52 -442,14 -636,-92 l -70,-38 -7,-210 c -14,-458 -100,-837 -264,-1166 -231,-462 -559,-708 -942,-708 -258,0 -478,76 -613,211 -79,78 -128,163 -165,284 -26,84 -28,102 -28,270 0,158 3,196 27,308 99,468 371,997 650,1264 92,88 141,119 208,129 38,6 42,5 37,-12 -3,-10 -18,-59 -33,-109 -36,-120 -45,-290 -21,-385 19,-74 52,-134 97,-180 l 32,-31 -71,-147 c -183,-380 -278,-694 -270,-887 5,-115 26,-160 89,-193 36,-19 54,-22 101,-18 216,21 388,268 504,726 33,132 75,362 89,488 l 7,62 h -44 c -66,0 -170,25 -233,56 -124,61 -183,167 -172,312 12,156 149,351 281,401 150,56 303,27 480,-93 l 69,-46 70,66 c 148,140 362,273 545,338 204,72 472,91 679,47 191,-40 422,-139 549,-235 88,-66 229,-217 300,-321 427,-625 445,-1441 49,-2215 -276,-538 -762,-976 -1400,-1260 -274,-122 -478,-177 -800,-215 -615,-73 -1442,29 -2250,276 -93,28 -178,54 -187,56 -13,4 -18,-5 -23,-44 -14,-97 -57,-278 -92,-377 -162,-466 -472,-782 -896,-910 -261,-79 -506,-111 -804,-103 -209,5 -288,15 -453,57 -405,102 -716,360 -871,721 -59,135 -73,203 -73,354 0,159 21,252 94,400 188,384 609,628 1185,686 145,14 449,6 615,-16 164,-22 433,-78 590,-123 135,-39 135,-39 146,-18 38,68 186,578 172,591 -3,3 -40,-15 -83,-40 -100,-57 -228,-110 -324,-135 -83,-22 -222,-27 -283,-10 -87,24 -231,143 -294,242 l -24,38 -82,-55 c -100,-68 -250,-145 -343,-176 -54,-19 -91,-24 -165,-24 -86,0 -100,3 -147,29 -81,45 -191,146 -232,214 -5,9 -35,-6 -107,-54 -131,-88 -279,-159 -401,-190 -81,-21 -114,-25 -191,-21 -85,4 -101,8 -180,47 -110,54 -230,170 -282,271 l -34,66 -96,-63 c -123,-81 -318,-183 -438,-229 -148,-57 -250,-78 -382,-78 -195,-1 -325,48 -446,168 -39,38 -76,79 -82,90 -10,20 -11,20 -39,-2 -149,-117 -377,-240 -507,-273 -155,-39 -304,-21 -417,51 -68,43 -170,154 -219,239 -24,41 -45,77 -47,79 -1,2 -38,-23 -80,-56 -455,-352 -860,-425 -1075,-195 -102,109 -139,278 -104,472 8,41 181,581 386,1200 205,619 385,1169 401,1223 71,243 57,407 -38,452 -49,24 -152,16 -213,-15 -104,-52 -198,-165 -255,-307 -15,-37 -236,-727 -490,-1533 l -461,-1465 -337,-3 c -316,-2 -337,-1 -336,15 0,10 326,1026 723,2258 452,1400 720,2244 714,2250 -5,6 -92,10 -221,10 -173,0 -224,-3 -277,-18 -81,-22 -159,-57 -204,-92 -42,-32 -86,-116 -86,-162 0,-18 -2,-33 -5,-33 -20,0 -94,49 -131,86 -170,176 -67,472 215,618 177,91 349,126 663,133 l 227,6 47,81 c 140,243 331,476 517,633 388,325 833,456 1262,371 z m 858,-480 c 79,-79 173,-183 209,-231 130,-176 232,-382 293,-591 74,-259 72,-646 -6,-923 -73,-263 -232,-491 -427,-614 l -32,-21 19,44 c 74,173 66,407 -21,571 -165,312 -627,394 -964,171 -80,-53 -181,-156 -229,-232 l -38,-63 -27,78 c -56,170 -160,259 -346,298 -151,32 -346,5 -552,-76 -40,-16 -75,-29 -78,-29 -8,0 0,33 46,180 l 39,125 h 303 c 237,1 328,5 418,18 687,105 1123,420 1257,909 14,48 18,102 18,223 0,154 -6,199 -41,290 -15,37 26,5 159,-127 z M 5993,5762 c 71,-203 244,-380 464,-477 l 78,-35 -262,7 -261,6 -95,-294 c -53,-162 -157,-485 -233,-719 -75,-234 -149,-450 -165,-481 -92,-185 -234,-342 -336,-373 -22,-7 -23,-5 -23,41 0,26 6,69 13,94 20,75 782,2309 787,2309 3,0 17,-35 33,-78 z M 7270,5163 C 6851,4809 6561,4163 6522,3495 l -7,-120 -45,-22 c -29,-15 -62,-23 -96,-23 -64,0 -84,7 -84,29 0,9 124,423 274,921 l 274,905 178,2 c 99,1 202,6 229,11 81,15 83,14 25,-35 z m 602,-613 c -6,-63 -52,-181 -113,-292 -33,-60 -59,-112 -56,-114 3,-3 54,-19 113,-36 94,-27 125,-31 229,-31 84,0 135,5 170,16 27,9 50,15 52,14 1,-2 -13,-57 -31,-122 -18,-66 -42,-162 -52,-213 l -19,-94 -75,-72 c -223,-212 -493,-360 -602,-330 -43,12 -74,73 -88,174 -29,209 75,603 232,874 86,149 191,271 228,264 11,-2 14,-13 12,-38 z m 5781,-248 68,-17 -6,-45 c -33,-240 -123,-555 -207,-722 -81,-162 -203,-271 -272,-245 -19,7 -29,76 -21,140 24,188 129,491 271,785 53,111 68,133 82,127 9,-4 48,-14 85,-23 z M 10557,2531 c 148,-88 329,-93 557,-17 42,14 78,26 81,26 3,0 -54,-179 -59,-187 -1,-1 -65,13 -142,33 -309,78 -593,116 -875,118 l -186,1 83,27 c 80,26 188,77 289,136 l 50,30 67,-63 c 36,-35 97,-81 135,-104 z"
       id="path10"
       style="stroke-width:4.07945" />
    <path
       d="M 5160,10019 C 4637,9980 4041,9847 3477,9644 2837,9415 2154,8939 1643,8366 848,7475 358,6356 231,5140 195,4798 192,4175 225,3850 290,3198 433,2656 669,2165 1040,1394 1573,852 2329,475 2676,303 3077,215 3570,203 c 725,-17 1455,142 2161,472 382,179 751,303 1069,361 135,25 401,25 490,0 221,-61 339,-192 348,-386 3,-79 -2,-107 -33,-207 l -7,-22 64,15 c 305,70 536,216 643,408 119,213 95,567 -55,816 -187,311 -457,480 -885,555 -144,25 -433,36 -659,25 -348,-18 -624,-55 -1311,-179 -558,-101 -827,-136 -1135,-150 -423,-18 -855,30 -1153,129 -423,141 -786,432 -1029,822 -342,551 -462,1301 -357,2231 26,234 39,305 98,537 465,1825 1418,3007 2776,3443 594,191 1249,219 1797,78 548,-142 1085,-555 1368,-1052 156,-276 233,-544 246,-859 21,-486 -120,-909 -393,-1184 -175,-177 -351,-266 -523,-266 -121,0 -211,41 -271,123 l -31,42 75,5 c 92,7 153,41 209,115 67,87 82,142 82,285 0,114 -2,130 -25,181 -73,155 -207,226 -413,217 -122,-6 -192,-29 -289,-94 -116,-80 -202,-198 -252,-347 -125,-375 37,-729 395,-864 140,-52 240,-67 445,-67 193,0 314,17 480,68 738,222 1225,843 1304,1660 68,698 -218,1483 -729,1996 -520,523 -1291,843 -2190,910 -158,12 -555,11 -720,-1 z"
       id="path12"
       style="stroke-width:4.07945" />
    <path
       d="m 5980,8863 c -252,-40 -454,-120 -669,-266 -118,-80 -310,-260 -408,-382 -78,-97 -205,-285 -258,-381 l -39,-72 -236,-5 c -318,-7 -477,-36 -647,-118 -251,-120 -356,-371 -221,-524 l 40,-45 24,49 c 48,95 148,164 292,203 155,41 631,33 617,-11 -3,-9 -329,-1022 -725,-2250 -396,-1229 -717,-2237 -714,-2240 3,-3 126,-7 273,-9 l 267,-4 463,1468 c 255,807 474,1491 487,1521 64,143 176,272 281,321 121,56 267,38 326,-40 29,-38 57,-132 57,-193 0,-80 -31,-230 -75,-359 -24,-72 -204,-616 -399,-1209 -303,-919 -358,-1092 -367,-1171 -26,-221 45,-382 200,-455 52,-24 66,-26 186,-26 115,1 139,4 210,28 174,61 369,175 543,320 77,65 93,75 98,60 4,-10 22,-50 40,-89 67,-142 166,-248 284,-302 84,-39 201,-42 319,-8 147,42 352,155 504,280 32,26 59,46 60,44 61,-121 127,-194 222,-245 101,-53 170,-66 325,-60 152,6 217,21 387,92 149,63 382,198 495,287 27,21 39,26 42,16 33,-112 102,-227 172,-286 202,-169 388,-173 694,-16 58,30 150,87 204,126 55,39 102,66 104,60 2,-6 20,-37 41,-69 49,-75 127,-145 207,-184 59,-29 70,-31 137,-26 131,10 276,74 481,214 59,41 109,73 111,71 1,-2 15,-28 30,-58 34,-68 162,-196 230,-230 45,-22 62,-25 160,-25 97,1 121,5 202,33 113,39 252,107 360,178 44,30 83,54 86,54 13,0 -44,-268 -93,-437 -27,-93 -126,-371 -135,-382 -2,-1 -50,11 -107,27 -237,70 -451,117 -683,148 -176,24 -546,24 -699,1 -370,-57 -645,-185 -847,-394 -104,-108 -177,-223 -217,-346 -79,-238 -63,-434 53,-667 168,-334 464,-550 876,-638 350,-76 821,-46 1188,74 318,104 568,330 735,663 87,172 159,427 173,612 3,43 7,79 7,79 1,0 56,-18 121,-40 723,-244 1571,-377 2170,-340 386,23 666,83 935,198 578,248 1010,595 1311,1055 300,459 448,1051 384,1541 -64,491 -332,966 -658,1166 -103,63 -264,131 -392,166 -135,36 -383,45 -520,19 -280,-52 -567,-209 -772,-424 -51,-53 -53,-54 -75,-37 -145,106 -234,150 -339,167 -155,25 -288,-60 -376,-239 -34,-68 -38,-83 -38,-156 0,-65 5,-89 23,-124 46,-87 163,-139 335,-149 53,-3 97,-9 97,-12 0,-4 -7,-63 -15,-131 -80,-653 -268,-1097 -518,-1220 -166,-82 -327,-30 -371,119 -56,188 36,556 254,1018 55,116 57,123 40,138 -27,24 -76,122 -96,190 -24,85 -22,235 5,348 11,49 21,91 21,93 0,3 -20,-8 -43,-25 -159,-109 -397,-458 -542,-795 -212,-491 -251,-916 -109,-1186 82,-157 230,-254 459,-301 94,-20 327,-17 405,4 477,129 837,714 930,1512 7,55 14,192 16,305 l 4,205 62,42 c 172,118 467,179 668,139 162,-33 299,-123 386,-253 86,-129 143,-356 151,-603 11,-335 -69,-667 -251,-1045 -140,-289 -262,-468 -456,-669 -196,-202 -386,-343 -615,-455 -301,-148 -550,-196 -1010,-196 -477,1 -912,72 -1419,232 l -149,47 6,87 c 16,218 122,850 227,1344 137,650 287,1138 474,1548 20,43 36,80 36,83 0,2 -89,3 -197,2 l -197,-3 -39,-97 c -22,-54 -42,-98 -46,-98 -4,0 -14,12 -22,26 -28,53 -159,163 -243,204 -137,67 -267,73 -413,18 -93,-34 -229,-134 -300,-218 -271,-322 -486,-811 -574,-1305 -20,-113 -24,-124 -72,-194 -108,-157 -224,-247 -332,-258 -77,-8 -121,3 -164,43 -46,40 -67,103 -57,166 5,32 521,1639 553,1726 6,14 -92,16 -309,6 l -135,-7 -32,-106 -33,-105 -31,59 c -83,155 -241,238 -417,221 -79,-8 -226,-56 -298,-98 -87,-49 -198,-144 -272,-232 -230,-274 -399,-645 -485,-1068 -14,-71 -32,-129 -44,-147 -71,-99 -346,-319 -499,-399 -138,-72 -211,-94 -307,-95 -224,-2 -334,170 -322,503 18,516 389,1210 647,1210 90,0 170,-45 201,-114 34,-76 19,-211 -40,-355 l -22,-54 83,5 c 172,11 275,102 322,284 63,248 31,452 -90,564 -158,146 -449,156 -702,26 -227,-118 -416,-311 -574,-586 -189,-328 -308,-769 -308,-1139 v -118 l -53,-51 c -94,-88 -203,-128 -331,-120 -153,10 -246,91 -246,215 0,33 77,301 250,873 137,453 248,826 246,827 -2,2 -99,6 -217,10 l -214,6 -209,-649 c -219,-680 -242,-740 -352,-905 -76,-113 -197,-229 -286,-273 -76,-38 -162,-55 -212,-42 -15,4 -44,23 -66,42 -64,58 -85,161 -60,297 6,31 197,602 424,1269 227,667 420,1245 429,1283 30,127 39,199 39,305 -1,174 -39,258 -139,305 -112,54 -279,44 -481,-26 -114,-40 -319,-143 -435,-218 -50,-33 -93,-59 -94,-57 -6,6 285,931 293,929 5,-1 104,-6 219,-13 651,-36 1158,96 1459,380 171,162 257,351 258,570 1,206 -58,337 -196,434 -171,122 -367,177 -615,175 -69,-1 -137,-4 -151,-6 z m 151,-483 c 72,-28 123,-70 152,-123 17,-34 22,-59 22,-127 0,-76 -3,-92 -33,-151 -63,-125 -192,-226 -357,-278 -133,-43 -229,-55 -420,-54 -144,1 -378,23 -392,37 -13,12 81,203 152,311 136,206 309,340 513,396 96,27 283,21 363,-11 z m 7787,-3505 c 69,-29 112,-86 112,-148 0,-33 -2,-35 -58,-51 -110,-30 -184,-17 -235,43 -32,39 -37,99 -9,124 52,47 123,59 190,32 z m -2237,-111 c 41,-12 66,-28 104,-67 93,-95 97,-166 24,-399 -122,-394 -294,-918 -319,-973 -15,-33 -52,-87 -83,-121 -160,-173 -391,-186 -483,-27 -53,89 -42,289 32,593 65,266 193,571 315,754 105,156 229,256 320,256 19,0 60,-7 90,-16 z m -2094,-22 c 52,-27 98,-82 120,-147 65,-185 -59,-700 -277,-1153 -69,-142 -87,-171 -142,-226 -82,-81 -156,-118 -252,-124 -86,-5 -134,8 -182,51 -57,49 -77,99 -82,202 -12,256 116,721 285,1035 97,180 221,327 315,371 56,26 154,22 215,-9 z m 966,-2837 c 200,-21 560,-86 580,-104 21,-20 -101,-295 -190,-430 -236,-355 -709,-599 -1069,-551 -231,30 -414,142 -491,297 -53,108 -40,280 32,432 86,180 295,312 555,350 41,6 86,13 100,15 66,9 360,4 483,-9 z"
       id="path14"
       style="stroke-width:4.07945" />
    <path
       d="m 5782,8330 c -230,-60 -417,-231 -556,-507 l -46,-92 48,-8 c 26,-4 155,-8 287,-7 214,0 249,3 320,22 257,70 410,218 410,397 0,55 -5,78 -22,106 -59,95 -262,136 -441,89 z m 286,-141 c 38,-16 42,-21 42,-53 0,-50 -14,-80 -62,-132 -96,-104 -299,-164 -555,-164 -62,0 -93,4 -93,11 0,19 96,142 147,190 166,155 371,213 521,148 z"
       id="path16"
       style="stroke-width:4.07945" />
    <path
       d="m 13789,4811 c -21,-16 -22,-22 -11,-45 16,-35 56,-49 121,-42 70,8 74,12 56,45 -28,55 -121,78 -166,42 z"
       id="path18"
       style="stroke-width:4.07945" />
    <path
       d="m 11535,4706 c -223,-103 -495,-678 -570,-1208 -29,-207 -13,-294 65,-346 30,-20 45,-23 105,-20 87,4 152,34 217,99 25,25 57,68 71,95 54,108 377,1126 377,1186 -1,51 -21,111 -47,140 -46,52 -162,80 -218,54 z m 103,-142 c 15,-10 22,-25 22,-48 0,-35 -63,-240 -241,-787 -105,-324 -111,-339 -154,-387 -71,-79 -164,-104 -179,-49 -14,55 34,346 89,535 81,280 231,579 353,705 49,50 73,57 110,31 z"
       id="path20"
       style="stroke-width:4.07945" />
    <path
       d="m 9374,4680 c -207,-118 -469,-688 -530,-1153 -29,-223 -8,-318 80,-358 79,-36 169,-22 264,41 71,48 125,122 188,257 218,467 336,967 266,1125 -49,111 -163,149 -268,88 z m 144,-140 c 39,-74 -42,-466 -160,-770 -62,-160 -160,-361 -198,-403 -51,-58 -135,-96 -171,-76 -37,19 -20,239 36,461 79,311 224,614 363,760 47,50 61,59 86,56 21,-2 35,-11 44,-28 z"
       id="path22"
       style="stroke-width:4.07945" />
    <path
       d="m 10050,1850 c -303,-38 -502,-152 -587,-338 -30,-64 -56,-209 -51,-277 12,-147 175,-292 383,-341 107,-25 335,-15 430,18 341,122 564,303 728,593 49,87 114,241 105,250 -9,9 -294,62 -428,80 -148,19 -474,28 -580,15 z m 515,-145 c 187,-22 305,-45 305,-59 0,-22 -97,-175 -157,-248 -182,-223 -498,-388 -743,-388 -163,1 -357,87 -406,181 -18,35 -18,128 0,194 46,173 183,274 433,319 106,19 406,20 568,1 z"
       id="path24"
       style="stroke-width:4.07945" />
  </g>
</svg>
